<svg width="908" height="255" viewBox="0 0 908 255" fill="none" xmlns="http://www.w3.org/2000/svg">
<path d="M822.197 254.271C806.596 254.271 792.824 250.33 780.879 242.449C768.935 234.486 759.591 223.273 752.847 208.809C746.102 194.265 742.73 177.08 742.73 157.254C742.73 137.59 746.102 120.527 752.847 106.063C759.591 91.6001 768.976 80.4276 781.001 72.546C793.027 64.6643 806.921 60.7235 822.685 60.7235C834.873 60.7235 844.501 62.7548 851.571 66.8175C858.721 70.799 864.165 75.3492 867.903 80.4682C871.722 85.506 874.687 89.65 876.8 92.9001H879.238V0.757812H908.002V250.371H880.213V221.607H876.8C874.687 225.02 871.681 229.326 867.781 234.526C863.881 239.645 858.315 244.236 851.083 248.299C843.851 252.28 834.223 254.271 822.197 254.271ZM826.097 228.432C837.635 228.432 847.386 225.426 855.349 219.413C863.312 213.319 869.365 204.909 873.509 194.184C877.653 183.377 879.725 170.904 879.725 156.766C879.725 142.79 877.694 130.562 873.631 120.08C869.568 109.517 863.556 101.31 855.593 95.4597C847.63 89.5281 837.798 86.5623 826.097 86.5623C813.909 86.5623 803.752 89.6906 795.627 95.9472C787.583 102.123 781.529 110.532 777.467 121.177C773.485 131.74 771.494 143.603 771.494 156.766C771.494 170.092 773.526 182.199 777.589 193.087C781.732 203.893 787.827 212.506 795.871 218.926C803.996 225.263 814.072 228.432 826.097 228.432Z" fill="#F7931A"/>
<path d="M596.67 137.754V250.372H567.906V63.1622H595.695V92.4138H598.133C602.521 82.907 609.183 75.2691 618.121 69.5001C627.059 63.6498 638.597 60.7246 652.736 60.7246C665.411 60.7246 676.503 63.3247 686.009 68.525C695.516 73.644 702.91 81.4445 708.192 91.9262C713.473 102.327 716.114 115.49 716.114 131.416V250.372H687.35V133.366C687.35 118.659 683.531 107.202 675.893 98.9954C668.255 90.7074 657.773 86.5635 644.448 86.5635C635.266 86.5635 627.059 88.5542 619.828 92.5356C612.677 96.5171 607.03 102.327 602.886 109.965C598.742 117.603 596.67 126.866 596.67 137.754Z" fill="#F7931A"/>
<path d="M463.779 254.272C445.74 254.272 430.18 250.291 417.098 242.328C404.098 234.284 394.063 223.071 386.994 208.689C380.006 194.225 376.512 177.406 376.512 158.23C376.512 139.054 380.006 122.153 386.994 107.527C394.063 92.82 403.894 81.3632 416.489 73.1565C429.164 64.8686 443.953 60.7246 460.854 60.7246C470.604 60.7246 480.233 62.3497 489.74 65.5999C499.246 68.85 507.9 74.1316 515.7 81.4444C523.501 88.6761 529.717 98.2641 534.348 110.208C538.98 122.153 541.295 136.86 541.295 154.33V166.518H396.988V141.654H512.044C512.044 131.091 509.931 121.665 505.706 113.377C501.562 105.089 495.63 98.5485 487.911 93.7545C480.273 88.9605 471.254 86.5635 460.854 86.5635C449.397 86.5635 439.484 89.4074 431.115 95.0952C422.827 100.702 416.448 108.015 411.979 117.034C407.51 126.053 405.276 135.722 405.276 146.042V162.617C405.276 176.756 407.713 188.741 412.589 198.572C417.545 208.323 424.411 215.758 433.187 220.877C441.962 225.915 452.159 228.433 463.779 228.433C471.335 228.433 478.161 227.377 484.255 225.264C490.43 223.071 495.752 219.82 500.221 215.514C504.69 211.126 508.144 205.682 510.581 199.182L538.37 206.982C535.445 216.408 530.529 224.696 523.623 231.846C516.716 238.915 508.184 244.441 498.027 248.422C487.871 252.322 476.454 254.272 463.779 254.272Z" fill="#F7931A"/>
<path d="M355.743 105.089L329.904 112.402C328.279 108.096 325.882 103.911 322.713 99.8485C319.625 95.7046 315.4 92.2919 310.037 89.6105C304.674 86.9291 297.808 85.5884 289.439 85.5884C277.982 85.5884 268.435 88.2292 260.797 93.5107C253.24 98.711 249.462 105.333 249.462 113.377C249.462 120.528 252.062 126.175 257.262 130.319C262.463 134.463 270.588 137.916 281.639 140.679L309.428 147.504C326.166 151.567 338.639 157.783 346.845 166.152C355.052 174.44 359.155 185.125 359.155 198.207C359.155 208.932 356.068 218.52 349.892 226.971C343.798 235.421 335.266 242.084 324.297 246.959C313.328 251.835 300.571 254.272 286.026 254.272C266.932 254.272 251.128 250.128 238.615 241.84C226.101 233.552 218.179 221.446 214.848 205.52L242.149 198.694C244.749 208.77 249.665 216.327 256.897 221.364C264.21 226.402 273.757 228.921 285.539 228.921C298.946 228.921 309.59 226.077 317.472 220.389C325.435 214.62 329.416 207.714 329.416 199.669C329.416 193.169 327.141 187.725 322.591 183.337C318.041 178.868 311.053 175.537 301.627 173.343L270.426 166.03C253.281 161.967 240.687 155.67 232.642 147.139C224.679 138.526 220.698 127.759 220.698 114.84C220.698 104.277 223.664 94.9327 229.595 86.8072C235.608 78.6818 243.774 72.3033 254.093 67.6718C264.494 63.0404 276.276 60.7246 289.439 60.7246C307.965 60.7246 322.51 64.7873 333.073 72.9127C343.717 81.0382 351.274 91.7637 355.743 105.089Z" fill="#F7931A"/>
<path d="M63.9727 59.5L182.473 59.501L182.5 253.947L64 253.946L107.473 224.946L111.973 184.446L77.4727 156.946L97.4727 143.446L107.473 97.4463L63.9727 59.5Z" fill="#F7931A"/>
<path d="M62.5702 253.786C50.7034 253.786 40.1252 251.695 30.8356 247.513C21.6059 243.33 14.2641 237.518 8.81016 230.077C3.41619 222.573 0.479464 213.871 0 203.969H22.6547C23.1342 210.057 25.1719 215.316 28.7679 219.744C32.3639 224.111 37.0686 227.493 42.8821 229.892C48.6956 232.291 55.1384 233.49 62.2106 233.49C70.1217 233.49 77.1339 232.075 83.2471 229.246C89.3602 226.417 94.1549 222.481 97.631 217.438C101.107 212.394 102.845 206.552 102.845 199.909C102.845 192.96 101.167 186.84 97.8108 181.551C94.4545 176.2 89.54 172.018 83.0673 169.004C76.5945 165.99 68.6833 164.484 59.3338 164.484H44.5902V144.188H59.3338C66.6456 144.188 73.0584 142.835 78.5723 140.128C84.1461 137.422 88.4912 133.609 91.6077 128.689C94.7842 123.769 96.3724 117.987 96.3724 111.345C96.3724 104.949 94.994 99.3828 92.237 94.647C89.4801 89.9113 85.5845 86.2211 80.5501 83.5765C75.5756 80.9319 69.7022 79.6096 62.9297 79.6096C56.5768 79.6096 50.5835 80.8089 44.9498 83.2075C39.376 85.5446 34.8211 88.958 31.2851 93.4477C27.749 97.876 25.8312 103.227 25.5315 109.5H3.95558C4.31518 99.598 7.22194 90.9261 12.6758 83.4843C18.1298 75.9809 25.2618 70.1381 34.072 65.9559C42.9421 61.7737 52.6812 59.6826 63.2893 59.6826C74.6766 59.6826 84.4457 62.0505 92.5966 66.7862C100.748 71.4604 107.011 77.6415 111.386 85.3294C115.761 93.0172 117.948 101.32 117.948 110.238C117.948 120.878 115.221 129.95 109.767 137.453C104.373 144.956 97.0317 150.153 87.7421 153.044V154.52C99.3691 156.488 108.449 161.562 114.982 169.742C121.514 177.861 124.781 187.916 124.781 199.909C124.781 210.18 122.054 219.406 116.6 227.586C111.206 235.704 103.834 242.1 94.4845 246.775C85.135 251.449 74.4968 253.786 62.5702 253.786Z" fill="#F7931A"/>
</svg>
