<svg width="150" height="40" viewBox="0 0 150 40" fill="none" xmlns="http://www.w3.org/2000/svg">
<path d="M34.3905 25.8861C34.3905 29.0867 32.9611 31.6659 30.1022 33.6235C27.2434 35.5812 23.5922 36.56 19.1486 36.56C16.5073 36.56 14.1457 36.2338 12.0637 35.5812C10.0128 34.9286 8.42806 34.0896 7.30939 33.0642C5.10313 31.0444 4 28.9779 4 26.8649C4 26.5852 4.09322 26.3522 4.27967 26.1657C4.49719 25.9482 4.74578 25.8395 5.02545 25.8395H14.3943C14.9536 25.8395 15.513 26.1191 16.0723 26.6785C16.6316 27.2378 17.626 27.5175 19.0554 27.5175C21.1995 27.5175 22.2716 26.694 22.2716 25.0471C22.2716 23.6798 21.184 22.9962 19.0088 22.9962H13.3688C13.027 22.9962 12.7318 22.8719 12.4832 22.6233C12.2346 22.3747 12.1103 22.0795 12.1103 21.7377V17.9622C12.1103 17.0921 12.4211 16.4706 13.0426 16.0977L19.5215 12.5553H7.26278C6.92097 12.5553 6.62576 12.431 6.37717 12.1824C6.12858 11.9338 6.00428 11.6386 6.00428 11.2968V4.72461C6.00428 4.3828 6.12858 4.08759 6.37717 3.839C6.62576 3.59041 6.92097 3.46611 7.26278 3.46611H31.1277C31.4695 3.46611 31.7647 3.59041 32.0133 3.839C32.2619 4.08759 32.3862 4.3828 32.3862 4.72461V10.6442C32.3862 11.4522 32.0755 12.0736 31.454 12.5087L26.0005 16.2376C31.5938 17.6359 34.3905 20.8521 34.3905 25.8861Z" fill="#FF920D"/>
<path d="M49.8577 29.3819C49.8577 29.0712 49.78 28.8226 49.6247 28.6361C49.2207 28.1389 47.7291 27.6573 45.15 27.1912C42.5708 26.694 40.4733 25.8395 38.8575 24.6276C37.2727 23.3846 36.4803 21.66 36.4803 19.4537C36.4803 17.2475 37.5368 15.352 39.6499 13.7672C41.7629 12.1824 44.6062 11.39 48.1797 11.39C51.7843 11.39 54.7364 12.1358 57.0358 13.6273C59.3353 15.1189 60.4851 16.626 60.4851 18.1486C60.4851 18.4904 60.3763 18.7856 60.1588 19.0342C59.9723 19.2828 59.7393 19.4071 59.4596 19.4071H51.6289C51.1628 19.4071 50.588 19.1585 49.9043 18.6613C49.2207 18.1642 48.708 17.9156 48.3662 17.9156C47.6515 17.9156 47.2941 18.1642 47.2941 18.6613C47.2941 18.9721 47.3718 19.2207 47.5272 19.4071C47.9311 19.8732 49.6247 20.3238 52.6078 20.7588C55.5909 21.1939 57.8127 22.1572 59.2732 23.6487C60.7647 25.1092 61.5105 26.7406 61.5105 28.5429C61.5105 31.0599 60.3763 33.0331 58.1079 34.4625C55.8395 35.8919 52.6233 36.6066 48.4594 36.6066C46.2531 36.6066 44.2955 36.358 42.5864 35.8609C40.8773 35.3637 39.5722 34.7422 38.671 33.9964C36.8998 32.5359 36.0142 31.1687 36.0142 29.8946C36.0142 29.5528 36.123 29.2576 36.3405 29.009C36.558 28.7604 36.8221 28.6361 37.1329 28.6361H45.2432C45.6783 28.6361 46.2376 28.8847 46.9212 29.3819C47.6359 29.848 48.304 30.0811 48.9255 30.0811C49.547 30.0811 49.8577 29.848 49.8577 29.3819Z" fill="#FF920D"/>
<path d="M87.3571 26.7251H73.467V26.9581C73.467 28.8537 74.0729 29.8014 75.2848 29.8014C75.6267 29.8014 76.0461 29.5528 76.5433 29.0556C77.0405 28.5584 77.5843 28.3099 78.1747 28.3099H86.9842C87.6679 28.3099 88.0097 28.6517 88.0097 29.3353C88.0097 30.8579 86.8599 32.4427 84.5604 34.0896C82.292 35.7366 79.2002 36.56 75.2848 36.56C71.4006 36.56 68.2155 35.5501 65.7295 33.5303C63.2747 31.4794 62.0473 28.6672 62.0473 25.0937V22.8563C62.0473 19.4693 63.3058 16.7192 65.8228 14.6062C68.3398 12.4621 71.6336 11.39 75.7043 11.39C79.8061 11.39 82.9757 12.5864 85.213 14.9791C87.4814 17.3718 88.6156 20.4015 88.6156 24.0682V25.4666C88.6156 25.8084 88.4913 26.1036 88.2427 26.3522C87.9941 26.6008 87.6989 26.7251 87.3571 26.7251ZM77.1959 20.7122C77.1959 18.8478 76.5744 17.9156 75.3314 17.9156C74.0885 17.9156 73.467 18.8478 73.467 20.7122V20.8987H77.1959V20.7122Z" fill="#FF920D"/>
<path d="M117.685 21.9707V34.8354C117.685 35.1772 117.56 35.4724 117.312 35.721C117.063 35.9696 116.768 36.0939 116.426 36.0939H107.523C107.182 36.0939 106.886 35.9696 106.638 35.721C106.389 35.4724 106.265 35.1772 106.265 34.8354V22.297C106.265 20.5879 105.488 19.7334 103.934 19.7334C102.381 19.7334 101.604 20.5879 101.604 22.297V34.8354C101.604 35.1772 101.479 35.4724 101.231 35.721C100.982 35.9696 100.687 36.0939 100.345 36.0939H91.4891C91.1473 36.0939 90.8521 35.9696 90.6035 35.721C90.3549 35.4724 90.2306 35.1772 90.2306 34.8354V13.1146C90.2306 12.7728 90.3549 12.4776 90.6035 12.229C90.8521 11.9804 91.1473 11.8561 91.4891 11.8561H99.6461C99.9879 11.8561 100.283 11.9804 100.532 12.229C100.78 12.4776 100.905 12.7728 100.905 13.1146V14.6528C101.713 13.6895 102.8 12.9126 104.167 12.3222C105.566 11.7007 107.057 11.39 108.642 11.39C111.19 11.39 113.334 12.2912 115.074 14.0935C116.815 15.8647 117.685 18.4904 117.685 21.9707Z" fill="#FF920D"/>
<path d="M119.064 25.7929V22.1106C119.064 18.6303 119.996 15.9734 121.861 14.1401C123.725 12.3067 125.994 11.39 128.666 11.39C131.369 11.39 133.529 12.1202 135.145 13.5807V4.2585C135.145 3.91669 135.269 3.62148 135.518 3.37289C135.766 3.1243 136.062 3 136.403 3H145.026C145.368 3 145.663 3.1243 145.912 3.37289C146.161 3.62148 146.285 3.91669 146.285 4.2585V34.8354C146.285 35.1772 146.161 35.4724 145.912 35.721C145.663 35.9696 145.368 36.0939 145.026 36.0939H137.103C136.761 36.0939 136.465 35.9696 136.217 35.721C135.968 35.4724 135.844 35.1772 135.844 34.8354V33.4371C134.228 35.519 131.944 36.56 128.992 36.56C126.04 36.56 123.647 35.69 121.814 33.9498C119.981 32.1786 119.064 29.4596 119.064 25.7929ZM135.145 25.5132V22.064C135.052 20.5103 134.275 19.7334 132.814 19.7334C131.261 19.7334 130.484 20.6346 130.484 22.4368V25.5132C130.484 27.3155 131.261 28.2166 132.814 28.2166C134.368 28.2166 135.145 27.3155 135.145 25.5132Z" fill="#FF920D"/>
</svg>
