<svg width="594" height="594" viewBox="0 0 594 594" fill="none" xmlns="http://www.w3.org/2000/svg">
<rect x="15" y="12" width="565" height="569" rx="60" stroke="#FF930E" stroke-width="10"/>
<path d="M192.176 432.737C183.906 432.737 176.827 429.792 170.939 423.904C165.05 418.015 162.105 410.936 162.105 402.667V192.176C162.105 183.906 165.05 176.827 170.939 170.939C176.827 165.05 183.906 162.105 192.176 162.105H402.667C410.936 162.105 418.015 165.05 423.904 170.939C429.792 176.827 432.737 183.906 432.737 192.176V229.763H402.667V192.176H192.176V402.667H402.667V365.079H432.737V402.667C432.737 410.936 429.792 418.015 423.904 423.904C418.015 429.792 410.936 432.737 402.667 432.737H192.176ZM312.456 372.597C304.187 372.597 297.108 369.652 291.219 363.763C285.33 357.875 282.386 350.796 282.386 342.526V252.316C282.386 244.047 285.33 236.968 291.219 231.079C297.108 225.19 304.187 222.246 312.456 222.246H417.702C425.971 222.246 433.05 225.19 438.939 231.079C444.827 236.968 447.772 244.047 447.772 252.316V342.526C447.772 350.796 444.827 357.875 438.939 363.763C433.05 369.652 425.971 372.597 417.702 372.597H312.456ZM417.702 342.526V252.316H312.456V342.526H417.702ZM357.561 319.974C363.826 319.974 369.151 317.781 373.536 313.396C377.921 309.011 380.114 303.686 380.114 297.421C380.114 291.157 377.921 285.832 373.536 281.446C369.151 277.061 363.826 274.869 357.561 274.869C351.297 274.869 345.972 277.061 341.587 281.446C337.201 285.832 335.009 291.157 335.009 297.421C335.009 303.686 337.201 309.011 341.587 313.396C345.972 317.781 351.297 319.974 357.561 319.974Z" fill="#FF930E"/>
</svg>
