<svg width="594" height="594" viewBox="0 0 594 594" fill="none" xmlns="http://www.w3.org/2000/svg">
<rect x="15" y="12" width="565" height="569" rx="60" stroke="#FF930E" stroke-width="10"/>
<path d="M207.21 237.279H342.526V207.209C342.526 194.679 338.141 184.03 329.37 175.259C320.6 166.489 309.95 162.103 297.421 162.103C284.891 162.103 274.242 166.489 265.471 175.259C256.701 184.03 252.316 194.679 252.316 207.209H222.245C222.245 186.41 229.575 168.681 244.234 154.022C258.893 139.363 276.622 132.033 297.421 132.033C318.219 132.033 335.948 139.363 350.607 154.022C365.266 168.681 372.596 186.41 372.596 207.209V237.279H387.631C395.9 237.279 402.979 240.223 408.868 246.112C414.757 252.001 417.701 259.08 417.701 267.349V417.7C417.701 425.969 414.757 433.048 408.868 438.937C402.979 444.825 395.9 447.77 387.631 447.77H207.21C198.941 447.77 191.862 444.825 185.973 438.937C180.085 433.048 177.14 425.969 177.14 417.7V267.349C177.14 259.08 180.085 252.001 185.973 246.112C191.862 240.223 198.941 237.279 207.21 237.279ZM207.21 417.7H387.631V267.349H207.21V417.7ZM297.421 372.594C305.69 372.594 312.769 369.65 318.658 363.761C324.547 357.873 327.491 350.794 327.491 342.524C327.491 334.255 324.547 327.176 318.658 321.287C312.769 315.398 305.69 312.454 297.421 312.454C289.151 312.454 282.072 315.398 276.184 321.287C270.295 327.176 267.351 334.255 267.351 342.524C267.351 350.794 270.295 357.873 276.184 363.761C282.072 369.65 289.151 372.594 297.421 372.594Z" fill="#FF930E"/>
</svg>
