<svg width="594" height="594" viewBox="0 0 594 594" fill="none" xmlns="http://www.w3.org/2000/svg">
<rect x="15" y="12" width="565" height="569" rx="60" stroke="#FF930E" stroke-width="10"/>
<path d="M282.762 447.034C263.717 445.029 245.989 439.83 229.575 431.435C213.162 423.04 198.816 412.14 186.537 398.734C174.259 385.327 164.611 369.979 157.595 352.689C150.578 335.398 147.07 316.981 147.07 297.435C147.07 258.093 160.163 224.264 186.349 195.948C212.536 167.632 244.673 151.595 282.762 147.836V178.282C252.942 182.041 227.884 195.134 207.586 217.561C187.289 239.988 177.14 266.613 177.14 297.435C177.14 328.257 187.289 354.881 207.586 377.309C227.884 399.736 252.942 412.829 282.762 416.588V447.034ZM282.762 372.61V279.769L243.671 318.86L222.622 297.435L297.797 222.26L372.972 297.435L351.547 318.484L312.832 279.769V372.61H282.762ZM312.832 447.034V416.588C323.858 415.335 334.32 412.579 344.218 408.319C354.116 404.059 363.199 398.671 371.469 392.156L392.894 413.957C381.617 422.978 369.214 430.37 355.682 436.133C342.15 441.897 327.867 445.53 312.832 447.034ZM371.093 202.714C362.824 196.199 353.803 190.811 344.03 186.551C334.257 182.291 323.858 179.535 312.832 178.282V147.836C327.867 149.339 342.15 152.973 355.682 158.736C369.214 164.5 381.617 171.892 392.894 180.913L371.093 202.714ZM413.943 392.532L392.518 371.107C399.033 362.837 404.421 353.754 408.681 343.856C412.941 333.958 415.697 323.496 416.95 312.47H447.396C445.892 327.505 442.196 341.788 436.308 355.32C430.419 368.852 422.964 381.255 413.943 392.532ZM416.95 282.4C415.697 271.374 412.941 260.912 408.681 251.014C404.421 241.116 399.033 232.032 392.518 223.763L413.943 202.338C422.964 213.614 430.419 226.018 436.308 239.55C442.196 253.081 445.892 267.365 447.396 282.4H416.95Z" fill="#FF930E"/>
</svg>
